<svg width="26" height="32" viewBox="0 0 26 32" fill="none" xmlns="http://www.w3.org/2000/svg">
<path d="M18.8335 6.49935V6.99935H19.3335H22.5002C23.9657 6.99935 25.1668 8.20049 25.1668 9.66602V28.666C25.1668 30.1315 23.9657 31.3327 22.5002 31.3327H3.50016C2.03464 31.3327 0.833496 30.1315 0.833496 28.666V9.66602C0.833496 8.20049 2.03464 6.99935 3.50016 6.99935H6.66683H7.16683V6.49935C7.16683 3.27632 9.77714 0.666016 13.0002 0.666016C16.2232 0.666016 18.8335 3.27632 18.8335 6.49935ZM16.1668 6.99935H16.6668V6.49935C16.6668 4.48154 15.018 2.83268 13.0002 2.83268C10.9824 2.83268 9.3335 4.48154 9.3335 6.49935V6.99935H9.8335H16.1668ZM22.5002 29.166H23.0002V28.666V9.66602V9.16602H22.5002H19.3335H18.8335V9.66602V12.8327C18.8335 13.4274 18.3449 13.916 17.7502 13.916C17.1555 13.916 16.6668 13.4274 16.6668 12.8327V9.66602V9.16602H16.1668H9.8335H9.3335V9.66602V12.8327C9.3335 13.4274 8.84485 13.916 8.25016 13.916C7.65547 13.916 7.16683 13.4274 7.16683 12.8327V9.66602V9.16602H6.66683H3.50016H3.00016V9.66602V28.666V29.166H3.50016H22.5002Z" fill="#A87D4D" stroke="white"/>
</svg>
