<svg width="28" height="34" viewBox="0 0 28 34" fill="none" xmlns="http://www.w3.org/2000/svg">
<g filter="url(#filter0_b_256459_511)">
<path d="M23.5002 7.49935H20.3335C20.3335 4.00018 17.4993 1.16602 14.0002 1.16602C10.501 1.16602 7.66683 4.00018 7.66683 7.49935H4.50016C2.7585 7.49935 1.3335 8.92435 1.3335 10.666V29.666C1.3335 31.4077 2.7585 32.8327 4.50016 32.8327H23.5002C25.2418 32.8327 26.6668 31.4077 26.6668 29.666V10.666C26.6668 8.92435 25.2418 7.49935 23.5002 7.49935ZM14.0002 4.33268C15.7418 4.33268 17.1668 5.75768 17.1668 7.49935H10.8335C10.8335 5.75768 12.2585 4.33268 14.0002 4.33268ZM23.5002 29.666H4.50016V10.666H7.66683V13.8327C7.66683 14.7035 8.37933 15.416 9.25016 15.416C10.121 15.416 10.8335 14.7035 10.8335 13.8327V10.666H17.1668V13.8327C17.1668 14.7035 17.8793 15.416 18.7502 15.416C19.621 15.416 20.3335 14.7035 20.3335 13.8327V10.666H23.5002V29.666Z" fill="#A87D4D"/>
<path d="M23.5002 6.99935H20.8155C20.5597 3.45769 17.6073 0.666016 14.0002 0.666016C10.393 0.666016 7.44067 3.45769 7.18482 6.99935H4.50016C2.48235 6.99935 0.833496 8.64821 0.833496 10.666V29.666C0.833496 31.6838 2.48235 33.3327 4.50016 33.3327H23.5002C25.518 33.3327 27.1668 31.6838 27.1668 29.666V10.666C27.1668 8.64821 25.518 6.99935 23.5002 6.99935ZM14.0002 4.83268C15.2949 4.83268 16.3833 5.77024 16.6194 6.99935H11.3809C11.617 5.77024 12.7054 4.83268 14.0002 4.83268ZM5.00016 29.166V11.166H7.16683V13.8327C7.16683 14.9797 8.10319 15.916 9.25016 15.916C10.3971 15.916 11.3335 14.9797 11.3335 13.8327V11.166H16.6668V13.8327C16.6668 14.9797 17.6032 15.916 18.7502 15.916C19.8971 15.916 20.8335 14.9797 20.8335 13.8327V11.166H23.0002V29.166H5.00016Z" stroke="white"/>
</g>
<defs>
<filter id="filter0_b_256459_511" x="-3.6665" y="-3.83398" width="35.3335" height="41.666" filterUnits="userSpaceOnUse" color-interpolation-filters="sRGB">
<feFlood flood-opacity="0" result="BackgroundImageFix"/>
<feGaussianBlur in="BackgroundImageFix" stdDeviation="2"/>
<feComposite in2="SourceAlpha" operator="in" result="effect1_backgroundBlur_256459_511"/>
<feBlend mode="normal" in="SourceGraphic" in2="effect1_backgroundBlur_256459_511" result="shape"/>
</filter>
</defs>
</svg>
