<svg width="24" height="18" viewBox="0 0 24 18" fill="none" xmlns="http://www.w3.org/2000/svg">
<g filter="url(#filter0_b_123_3877)">
<path d="M22 3C22 1.9 21.1 1 20 1H4C2.9 1 2 1.9 2 3V15C2 16.1 2.9 17 4 17H20C21.1 17 22 16.1 22 15V3ZM20 3L12 7.99L4 3H20ZM20 15H4V5L12 10L20 5V15Z" fill="url(#paint0_linear_123_3877)"/>
<path d="M12.265 10.424L19.5 5.90212V14.5H4.5V5.90212L11.735 10.424L12 10.5896L12.265 10.424ZM22.5 3C22.5 1.62386 21.3761 0.5 20 0.5H4C2.62386 0.5 1.5 1.62386 1.5 3V15C1.5 16.3761 2.62386 17.5 4 17.5H20C21.3761 17.5 22.5 16.3761 22.5 15V3ZM12 7.40071L5.74636 3.5H18.2536L12 7.40071Z" stroke="white"/>
</g>
<defs>
<filter id="filter0_b_123_3877" x="-3.49268" y="-4" width="30.9854" height="26" filterUnits="userSpaceOnUse" color-interpolation-filters="sRGB">
<feFlood flood-opacity="0" result="BackgroundImageFix"/>
<feGaussianBlur in="BackgroundImageFix" stdDeviation="2"/>
<feComposite in2="SourceAlpha" operator="in" result="effect1_backgroundBlur_123_3877"/>
<feBlend mode="normal" in="SourceGraphic" in2="effect1_backgroundBlur_123_3877" result="shape"/>
</filter>
<linearGradient id="paint0_linear_123_3877" x1="10.3565" y1="-0.920006" x2="38.9873" y2="3.8188" gradientUnits="userSpaceOnUse">
<stop stop-color="#A87D4D"/>
<stop offset="1" stop-color="#5C3317"/>
</linearGradient>
</defs>
</svg>
