<svg width="43" height="40" viewBox="0 0 43 40" fill="none" xmlns="http://www.w3.org/2000/svg">
<g filter="url(#filter0_d_256458_506)">
<path d="M29.4087 0C26.3743 0 23.4621 1.41253 21.5613 3.64469C19.6604 1.41253 16.7482 0 13.7138 0C8.34272 0 4.12256 4.22016 4.12256 9.59128C4.12256 16.1831 10.0517 21.5542 19.0326 29.7155L21.5613 32L24.0899 29.6981C33.0708 21.5542 38.9999 16.1831 38.9999 9.59128C38.9999 4.22016 34.7798 0 29.4087 0ZM21.7356 27.1172L21.5613 27.2916L21.3869 27.1172C13.086 19.6011 7.6103 14.6311 7.6103 9.59128C7.6103 6.10354 10.2261 3.48774 13.7138 3.48774C16.3994 3.48774 19.0152 5.21417 19.9395 7.60327H23.2005C24.1073 5.21417 26.7231 3.48774 29.4087 3.48774C32.8964 3.48774 35.5122 6.10354 35.5122 9.59128C35.5122 14.6311 30.0365 19.6011 21.7356 27.1172Z" fill="url(#paint0_linear_256458_506)"/>
<path d="M21.1806 3.96886L21.5613 4.41589L21.9419 3.96886C23.7509 1.8445 26.5257 0.5 29.4087 0.5C34.5036 0.5 38.4999 4.49631 38.4999 9.59128C38.4999 12.723 37.096 15.6037 34.5257 18.7461C31.9497 21.8956 28.2545 25.2466 23.754 29.3277L23.7533 29.3284L21.56 31.325L19.3689 29.3455L19.3678 29.3445L19.3264 29.3069C14.845 25.2345 11.1649 21.8902 8.59688 18.7484C6.02647 15.6037 4.62256 12.723 4.62256 9.59128C4.62256 4.49631 8.61886 0.5 13.7138 0.5C16.5968 0.5 19.3716 1.8445 21.1806 3.96886ZM11.0059 17.7507C13.436 20.5902 16.9045 23.733 21.0421 27.4795L21.2077 27.6451L21.5613 27.9987L21.9148 27.6451L22.0804 27.4795C26.218 23.733 29.6865 20.5902 32.1166 17.7507C34.5436 14.9148 36.0122 12.2957 36.0122 9.59128C36.0122 5.8274 33.1725 2.98774 29.4087 2.98774C26.6518 2.98774 23.9548 4.67716 22.8665 7.10327H20.2713C19.1683 4.67866 16.4724 2.98774 13.7138 2.98774C9.94996 2.98774 7.1103 5.8274 7.1103 9.59128C7.1103 12.2957 8.57885 14.9148 11.0059 17.7507Z" stroke="white"/>
</g>
<defs>
<filter id="filter0_d_256458_506" x="0.122559" y="0" width="42.8774" height="40" filterUnits="userSpaceOnUse" color-interpolation-filters="sRGB">
<feFlood flood-opacity="0" result="BackgroundImageFix"/>
<feColorMatrix in="SourceAlpha" type="matrix" values="0 0 0 0 0 0 0 0 0 0 0 0 0 0 0 0 0 0 127 0" result="hardAlpha"/>
<feOffset dy="4"/>
<feGaussianBlur stdDeviation="2"/>
<feComposite in2="hardAlpha" operator="out"/>
<feColorMatrix type="matrix" values="0 0 0 0 0 0 0 0 0 0 0 0 0 0 0 0 0 0 0.25 0"/>
<feBlend mode="normal" in2="BackgroundImageFix" result="effect1_dropShadow_256458_506"/>
<feBlend mode="normal" in="SourceGraphic" in2="effect1_dropShadow_256458_506" result="shape"/>
</filter>
<linearGradient id="paint0_linear_256458_506" x1="18.6952" y1="-3.84001" x2="56.0753" y2="92.5866" gradientUnits="userSpaceOnUse">
<stop stop-color="#A87D4D"/>
<stop offset="1" stop-color="#5C3317"/>
</linearGradient>
</defs>
</svg>
