<svg width="37" height="35" viewBox="0 0 37 35" fill="none" xmlns="http://www.w3.org/2000/svg">
<g filter="url(#filter0_b_256459_506)">
<path d="M26.4087 1C23.3743 1 20.4621 2.41253 18.5613 4.64469C16.6604 2.41253 13.7482 1 10.7138 1C5.34272 1 1.12256 5.22016 1.12256 10.5913C1.12256 17.1831 7.05171 22.5542 16.0326 30.7155L18.5613 33L21.0899 30.6981C30.0708 22.5542 35.9999 17.1831 35.9999 10.5913C35.9999 5.22016 31.7798 1 26.4087 1ZM18.7356 28.1172L18.5613 28.2916L18.3869 28.1172C10.086 20.6011 4.6103 15.6311 4.6103 10.5913C4.6103 7.10354 7.2261 4.48774 10.7138 4.48774C13.3994 4.48774 16.0152 6.21417 16.9395 8.60327H20.2005C21.1073 6.21417 23.7231 4.48774 26.4087 4.48774C29.8964 4.48774 32.5122 7.10354 32.5122 10.5913C32.5122 15.6311 27.0365 20.6011 18.7356 28.1172Z" fill="#A87D4D"/>
<path d="M18.5612 3.89737C16.5725 1.80351 13.703 0.5 10.7138 0.5C5.06658 0.5 0.622559 4.94402 0.622559 10.5913C0.622559 14.0514 2.18322 17.1522 4.82262 20.3813C7.43776 23.5807 11.1633 26.9663 15.6021 30.9999L15.6964 31.0856L15.6975 31.0865L18.2261 33.371L18.5625 33.675L18.8978 33.3697L21.4257 31.0685L21.4265 31.0678L21.4743 31.0245C25.9333 26.9811 29.6755 23.5876 32.2998 20.3792C34.9393 17.1522 36.4999 14.0514 36.4999 10.5913C36.4999 4.94402 32.0559 0.5 26.4087 0.5C23.4195 0.5 20.55 1.80351 18.5612 3.89737ZM18.5612 27.6005C14.475 23.9004 11.116 20.8468 8.76565 18.1005C6.37962 15.3125 5.1103 12.9266 5.1103 10.5913C5.1103 7.37968 7.50224 4.98774 10.7138 4.98774C13.2067 4.98774 15.6283 6.5998 16.4731 8.78367L16.5968 9.10327H16.9395H20.2005H20.5455L20.6679 8.7807C21.4956 6.60012 23.915 4.98774 26.4087 4.98774C29.6203 4.98774 32.0122 7.37968 32.0122 10.5913C32.0122 12.9266 30.7429 15.3125 28.3568 18.1005C26.0065 20.8468 22.6475 23.9004 18.5612 27.6005Z" stroke="white"/>
</g>
<defs>
<filter id="filter0_b_256459_506" x="-3.87744" y="-4" width="44.8774" height="42.3496" filterUnits="userSpaceOnUse" color-interpolation-filters="sRGB">
<feFlood flood-opacity="0" result="BackgroundImageFix"/>
<feGaussianBlur in="BackgroundImageFix" stdDeviation="2"/>
<feComposite in2="SourceAlpha" operator="in" result="effect1_backgroundBlur_256459_506"/>
<feBlend mode="normal" in="SourceGraphic" in2="effect1_backgroundBlur_256459_506" result="shape"/>
</filter>
</defs>
</svg>
