<svg width="32" height="32" viewBox="0 0 32 32" fill="none" xmlns="http://www.w3.org/2000/svg">
<path d="M7.66085 25.8325L7.48913 26.1919L7.80106 26.4396C10.0622 28.2352 12.9069 29.3 16 29.3C19.0931 29.3 21.9378 28.2352 24.1989 26.4396L24.508 26.1942L24.3411 25.8366C24.1107 25.3429 23.6202 24.9211 23.0597 24.5713C22.4837 24.2118 21.7649 23.8864 20.986 23.6123C19.4308 23.0652 17.5704 22.7 16 22.7C14.4295 22.7 12.573 23.0652 11.0199 23.6124C10.2419 23.8865 9.52381 24.2119 8.9473 24.5712C8.38585 24.9211 7.8953 25.3417 7.66085 25.8325ZM5.42615 24.0308L5.80897 24.5338L6.21029 24.0455C7.25831 22.7702 9.10064 21.8743 11.0364 21.2993C12.9586 20.7283 14.8827 20.5 16 20.5C17.1173 20.5 19.0414 20.7283 20.9636 21.2993C22.8994 21.8743 24.7417 22.7702 25.7897 24.0455L26.176 23.728L26.5739 24.0308C28.2681 21.8051 29.3 19.0279 29.3 16C29.3 8.66786 23.3321 2.7 16 2.7C8.66786 2.7 2.7 8.66786 2.7 16C2.7 19.0279 3.7319 21.8051 5.42615 24.0308ZM0.5 16C0.5 7.44414 7.44414 0.5 16 0.5C24.5559 0.5 31.5 7.44414 31.5 16C31.5 24.5559 24.5559 31.5 16 31.5C7.44414 31.5 0.5 24.5559 0.5 16ZM10.9 12C10.9 9.17214 13.1721 6.9 16 6.9C18.8279 6.9 21.1 9.17214 21.1 12C21.1 14.8279 18.8279 17.1 16 17.1C13.1721 17.1 10.9 14.8279 10.9 12ZM13.1 12C13.1 13.6041 14.3959 14.9 16 14.9C17.6041 14.9 18.9 13.6041 18.9 12C18.9 10.3959 17.6041 9.1 16 9.1C14.3959 9.1 13.1 10.3959 13.1 12Z" fill="#A87D4D" stroke="white"/>
</svg>
