<svg width="34" height="34" viewBox="0 0 34 34" fill="none" xmlns="http://www.w3.org/2000/svg">
<g filter="url(#filter0_b_256459_514)">
<path d="M17 1C8.168 1 1 8.168 1 17C1 25.832 8.168 33 17 33C25.832 33 33 25.832 33 17C33 8.168 25.832 1 17 1ZM9.112 27.048C9.8 25.608 13.992 24.2 17 24.2C20.008 24.2 24.216 25.608 24.888 27.048C22.712 28.776 19.976 29.8 17 29.8C14.024 29.8 11.288 28.776 9.112 27.048ZM27.176 24.728C24.888 21.944 19.336 21 17 21C14.664 21 9.112 21.944 6.824 24.728C5.192 22.584 4.2 19.912 4.2 17C4.2 9.944 9.944 4.2 17 4.2C24.056 4.2 29.8 9.944 29.8 17C29.8 19.912 28.808 22.584 27.176 24.728V24.728ZM17 7.4C13.896 7.4 11.4 9.896 11.4 13C11.4 16.104 13.896 18.6 17 18.6C20.104 18.6 22.6 16.104 22.6 13C22.6 9.896 20.104 7.4 17 7.4ZM17 15.4C15.672 15.4 14.6 14.328 14.6 13C14.6 11.672 15.672 10.6 17 10.6C18.328 10.6 19.4 11.672 19.4 13C19.4 14.328 18.328 15.4 17 15.4Z" fill="#A87D4D"/>
<path d="M29.3 17C29.3 19.5803 28.4892 21.9652 27.1305 23.9386C25.8727 22.6962 24.0282 21.8694 22.2484 21.3407C20.2386 20.7437 18.2187 20.5 17 20.5C15.7813 20.5 13.7614 20.7437 11.7516 21.3407C9.97182 21.8694 8.12731 22.6962 6.86946 23.9386C5.51075 21.9652 4.7 19.5803 4.7 17C4.7 10.2201 10.2201 4.7 17 4.7C23.7799 4.7 29.3 10.2201 29.3 17ZM17 0.5C7.89186 0.5 0.5 7.89186 0.5 17C0.5 26.1081 7.89186 33.5 17 33.5C26.1081 33.5 33.5 26.1081 33.5 17C33.5 7.89186 26.1081 0.5 17 0.5ZM17 29.3C14.3101 29.3 11.8253 28.4297 9.79938 26.9438C9.95555 26.7827 10.1786 26.6053 10.4762 26.4198C10.9732 26.1101 11.6201 25.8135 12.3521 25.5556C13.819 25.0388 15.5625 24.7 17 24.7C18.4376 24.7 20.1852 25.0388 21.654 25.5557C22.3871 25.8136 23.0343 26.1102 23.5303 26.4197C23.8273 26.605 24.0488 26.782 24.203 26.9421C22.1766 28.429 19.6909 29.3 17 29.3ZM17 6.9C13.6199 6.9 10.9 9.61986 10.9 13C10.9 16.3801 13.6199 19.1 17 19.1C20.3801 19.1 23.1 16.3801 23.1 13C23.1 9.61986 20.3801 6.9 17 6.9ZM17 14.9C15.9481 14.9 15.1 14.0519 15.1 13C15.1 11.9481 15.9481 11.1 17 11.1C18.0519 11.1 18.9 11.9481 18.9 13C18.9 14.0519 18.0519 14.9 17 14.9Z" stroke="white"/>
</g>
<defs>
<filter id="filter0_b_256459_514" x="-4" y="-4" width="42" height="42" filterUnits="userSpaceOnUse" color-interpolation-filters="sRGB">
<feFlood flood-opacity="0" result="BackgroundImageFix"/>
<feGaussianBlur in="BackgroundImageFix" stdDeviation="2"/>
<feComposite in2="SourceAlpha" operator="in" result="effect1_backgroundBlur_256459_514"/>
<feBlend mode="normal" in="SourceGraphic" in2="effect1_backgroundBlur_256459_514" result="shape"/>
</filter>
</defs>
</svg>
